<svg width="573" height="386" viewBox="0 0 573 386" fill="none" xmlns="http://www.w3.org/2000/svg">
<path d="M1.792 8.96V6.816H7.616V14.112C7.616 15.4453 7.26933 16.4427 6.576 17.104C5.89333 17.7653 5.01333 18.096 3.936 18.096C2.592 18.096 1.41867 17.5787 0.416 16.544L1.712 14.752C2.384 15.4773 3.088 15.84 3.824 15.84C4.176 15.84 4.47467 15.7067 4.72 15.44C4.976 15.1627 5.104 14.752 5.104 14.208V8.96H1.792ZM11.906 13.696C11.906 14.4 12.1033 14.976 12.498 15.424C12.9033 15.8613 13.4153 16.08 14.034 16.08C14.6633 16.08 15.1753 15.8613 15.57 15.424C15.9753 14.976 16.178 14.4 16.178 13.696C16.178 12.992 15.9753 12.416 15.57 11.968C15.1753 11.52 14.6633 11.296 14.034 11.296C13.4153 11.296 12.9033 11.52 12.498 11.968C12.1033 12.416 11.906 12.992 11.906 13.696ZM18.594 13.696C18.594 14.944 18.162 15.9947 17.298 16.848C16.434 17.7013 15.346 18.128 14.034 18.128C12.7327 18.128 11.65 17.7013 10.786 16.848C9.922 15.9947 9.49 14.944 9.49 13.696C9.49 12.448 9.922 11.3973 10.786 10.544C11.65 9.68 12.7327 9.248 14.034 9.248C15.346 9.248 16.434 9.68 17.298 10.544C18.162 11.3973 18.594 12.448 18.594 13.696ZM22.8766 18H20.4766V9.392H22.8766V18ZM20.6686 8.304C20.402 8.02667 20.2686 7.69067 20.2686 7.296C20.2686 6.90133 20.402 6.57067 20.6686 6.304C20.946 6.02667 21.282 5.888 21.6766 5.888C22.0713 5.888 22.402 6.02667 22.6686 6.304C22.946 6.57067 23.0846 6.90133 23.0846 7.296C23.0846 7.69067 22.946 8.02667 22.6686 8.304C22.402 8.57067 22.0713 8.704 21.6766 8.704C21.282 8.704 20.946 8.57067 20.6686 8.304ZM27.6485 13.2V18H25.2485V9.392H27.6485V10.352C28.3738 9.616 29.1898 9.248 30.0965 9.248C31.0032 9.248 31.7605 9.568 32.3685 10.208C32.9872 10.848 33.2965 11.7013 33.2965 12.768V18H30.8965V13.136C30.8965 11.8133 30.4112 11.152 29.4405 11.152C28.9605 11.152 28.5392 11.328 28.1765 11.68C27.8245 12.0213 27.6485 12.528 27.6485 13.2ZM43.086 15.12C43.502 15.632 44.062 15.888 44.766 15.888C45.47 15.888 46.0247 15.632 46.43 15.12C46.846 14.5973 47.054 13.888 47.054 12.992V6.816H49.55V13.072C49.55 14.6933 49.102 15.9413 48.206 16.816C47.31 17.68 46.1633 18.112 44.766 18.112C43.3687 18.112 42.2167 17.6747 41.31 16.8C40.414 15.9253 39.966 14.6827 39.966 13.072V6.816H42.462V12.992C42.462 13.888 42.67 14.5973 43.086 15.12ZM58.2629 15.328C58.2629 16.1707 57.9482 16.848 57.3189 17.36C56.7002 17.872 55.9109 18.128 54.9509 18.128C54.3109 18.128 53.6442 18.016 52.9509 17.792C52.2575 17.5573 51.6335 17.216 51.0789 16.768L52.1349 15.264C53.0309 15.9573 53.9855 16.304 54.9989 16.304C55.3082 16.304 55.5535 16.2453 55.7349 16.128C55.9162 16 56.0069 15.8347 56.0069 15.632C56.0069 15.4293 55.8789 15.2427 55.6229 15.072C55.3775 14.9013 55.0149 14.7413 54.5349 14.592C54.0655 14.4427 53.7029 14.3147 53.4469 14.208C53.2015 14.1013 52.9189 13.9467 52.5989 13.744C51.9482 13.3387 51.6229 12.7413 51.6229 11.952C51.6229 11.152 51.9429 10.5013 52.5829 10C53.2229 9.49867 54.0495 9.248 55.0629 9.248C56.0762 9.248 57.0895 9.58933 58.1029 10.272L57.2069 11.872C56.4602 11.36 55.7135 11.104 54.9669 11.104C54.2309 11.104 53.8629 11.3067 53.8629 11.712C53.8629 11.936 53.9802 12.112 54.2149 12.24C54.4495 12.368 54.8389 12.5173 55.3829 12.688C55.9269 12.8587 56.3109 12.992 56.5349 13.088C56.7695 13.1733 57.0469 13.312 57.3669 13.504C57.9642 13.8667 58.2629 14.4747 58.2629 15.328Z" fill="white"/>
<path d="M15.254 96.092C17.6513 93.656 19.3527 91.7227 20.358 90.292C21.402 88.8227 21.924 87.4113 21.924 86.058C21.924 84.7047 21.4793 83.5833 20.59 82.694C19.7007 81.766 18.56 81.302 17.168 81.302C14.616 81.302 12.1993 83.1193 9.918 86.754L2.668 82.462C4.56267 79.5233 6.63133 77.3 8.874 75.792C11.1553 74.284 14.036 73.53 17.516 73.53C21.0347 73.53 24.1087 74.6513 26.738 76.894C29.406 79.098 30.74 82.114 30.74 85.942C30.74 88.03 30.1987 90.0407 29.116 91.974C28.072 93.8687 26.1193 96.3047 23.258 99.282L15.95 106.88H31.958V115H3.364V108.272L15.254 96.092ZM64.6652 74.458V82.288H48.6572V89.074C49.8559 88.726 51.2285 88.552 52.7752 88.552C56.6805 88.552 60.0445 89.7313 62.8672 92.09C65.6899 94.4487 67.1012 97.6387 67.1012 101.66C67.1012 105.643 65.6319 108.949 62.6932 111.578C59.7932 114.169 56.1972 115.464 51.9052 115.464C46.4145 115.464 41.8325 113.434 38.1592 109.374L42.9152 102.762C43.2632 103.11 43.7272 103.535 44.3072 104.038C44.8872 104.541 45.9505 105.217 47.4972 106.068C49.0439 106.88 50.5905 107.286 52.1372 107.286C53.6839 107.286 55.0565 106.822 56.2552 105.894C57.4539 104.966 58.0532 103.593 58.0532 101.776C58.0532 99.9587 57.3959 98.5667 56.0812 97.6C54.8052 96.5947 53.1425 96.092 51.0932 96.092C49.0439 96.092 46.6659 96.8267 43.9592 98.296L40.1892 94.236V74.458H64.6652ZM75.056 74.458H84.104V91.104L99.416 74.458H110.61L94.486 92.38C95.878 94.3133 98.4493 97.9287 102.2 103.226C105.951 108.485 108.754 112.409 110.61 115H100.054L88.164 98.992L84.104 103.516V115H75.056V74.458ZM124.38 108.678V98.238H114.23V91.104H124.38V80.664H132.384V91.104H142.534V98.238H132.384V108.678H124.38ZM179.048 81.476C177.54 81.476 176.341 81.8433 175.452 82.578C174.601 83.274 174.176 84.2213 174.176 85.42C174.176 86.58 174.698 87.508 175.742 88.204C176.824 88.9 179.28 89.7313 183.108 90.698C186.974 91.626 189.971 93.0373 192.098 94.932C194.224 96.8267 195.288 99.5913 195.288 103.226C195.288 106.861 193.915 109.819 191.17 112.1C188.463 114.343 184.886 115.464 180.44 115.464C174.021 115.464 168.24 113.086 163.098 108.33L168.492 101.718C172.861 105.546 176.902 107.46 180.614 107.46C182.276 107.46 183.572 107.112 184.5 106.416C185.466 105.681 185.95 104.715 185.95 103.516C185.95 102.279 185.447 101.312 184.442 100.616C183.436 99.8813 181.445 99.1467 178.468 98.412C173.75 97.2907 170.29 95.8407 168.086 94.062C165.92 92.2447 164.838 89.422 164.838 85.594C164.838 81.7273 166.21 78.75 168.956 76.662C171.74 74.574 175.2 73.53 179.338 73.53C182.044 73.53 184.751 73.994 187.458 74.922C190.164 75.85 192.523 77.1647 194.534 78.866L189.952 85.478C186.433 82.81 182.798 81.476 179.048 81.476ZM220.012 82.288V115H210.964V82.288H199.48V74.458H231.496V82.288H220.012ZM249.061 104.56C250.569 106.416 252.599 107.344 255.151 107.344C257.703 107.344 259.714 106.416 261.183 104.56C262.691 102.665 263.445 100.094 263.445 96.846V74.458H272.493V97.136C272.493 103.013 270.869 107.537 267.621 110.708C264.373 113.84 260.217 115.406 255.151 115.406C250.086 115.406 245.91 113.821 242.623 110.65C239.375 107.479 237.751 102.975 237.751 97.136V74.458H246.799V96.846C246.799 100.094 247.553 102.665 249.061 104.56ZM296.414 74.458C303.645 74.458 309.193 76.2367 313.06 79.794C316.927 83.3127 318.86 88.2233 318.86 94.526C318.86 100.829 316.965 105.817 313.176 109.49C309.425 113.163 303.683 115 295.95 115H282.088V74.458H296.414ZM296.878 106.996C301.015 106.996 304.186 105.952 306.39 103.864C308.633 101.776 309.754 98.7407 309.754 94.758C309.754 90.7753 308.633 87.7207 306.39 85.594C304.186 83.4287 300.783 82.346 296.182 82.346H291.136V106.996H296.878ZM356.096 74.458V82.52H335.912V90.872H354.066V98.586H335.912V106.996H356.734V115H326.864V74.458H356.096ZM393.375 74.458H402.423V115H393.375L374.061 89.596V115H365.013V74.458H373.481L393.375 100.558V74.458ZM429.79 82.288V115H420.742V82.288H409.258V74.458H441.274V82.288H429.79ZM460.819 81.476C459.311 81.476 458.112 81.8433 457.223 82.578C456.372 83.274 455.947 84.2213 455.947 85.42C455.947 86.58 456.469 87.508 457.513 88.204C458.596 88.9 461.051 89.7313 464.879 90.698C468.746 91.626 471.742 93.0373 473.869 94.932C475.996 96.8267 477.059 99.5913 477.059 103.226C477.059 106.861 475.686 109.819 472.941 112.1C470.234 114.343 466.658 115.464 462.211 115.464C455.792 115.464 450.012 113.086 444.869 108.33L450.263 101.718C454.632 105.546 458.673 107.46 462.385 107.46C464.048 107.46 465.343 107.112 466.271 106.416C467.238 105.681 467.721 104.715 467.721 103.516C467.721 102.279 467.218 101.312 466.213 100.616C465.208 99.8813 463.216 99.1467 460.239 98.412C455.522 97.2907 452.061 95.8407 449.857 94.062C447.692 92.2447 446.609 89.422 446.609 85.594C446.609 81.7273 447.982 78.75 450.727 76.662C453.511 74.574 456.972 73.53 461.109 73.53C463.816 73.53 466.522 73.994 469.229 74.922C471.936 75.85 474.294 77.1647 476.305 78.866L471.723 85.478C468.204 82.81 464.57 81.476 460.819 81.476ZM22.156 162.288V195H13.108V162.288H1.624V154.458H33.64V162.288H22.156ZM73.3611 167.914C73.3611 174.41 70.7898 178.605 65.6471 180.5L75.9131 195H64.7771L55.7871 182.066H49.5231V195H40.4751V154.458H55.8451C62.1478 154.458 66.6331 155.521 69.3011 157.648C72.0078 159.775 73.3611 163.197 73.3611 167.914ZM56.1351 174.236C59.2284 174.236 61.3358 173.733 62.4571 172.728C63.5784 171.723 64.1391 170.137 64.1391 167.972C64.1391 165.768 63.5591 164.26 62.3991 163.448C61.2391 162.636 59.2091 162.23 56.3091 162.23H49.5231V174.236H56.1351ZM93.5457 184.56C95.0537 186.416 97.0837 187.344 99.6357 187.344C102.188 187.344 104.198 186.416 105.668 184.56C107.176 182.665 107.93 180.094 107.93 176.846V154.458H116.978V177.136C116.978 183.013 115.354 187.537 112.106 190.708C108.858 193.84 104.701 195.406 99.6357 195.406C94.5704 195.406 90.3944 193.821 87.1077 190.65C83.8597 187.479 82.2357 182.975 82.2357 177.136V154.458H91.2837V176.846C91.2837 180.094 92.0377 182.665 93.5457 184.56ZM139.622 161.476C138.114 161.476 136.916 161.843 136.026 162.578C135.176 163.274 134.75 164.221 134.75 165.42C134.75 166.58 135.272 167.508 136.316 168.204C137.399 168.9 139.854 169.731 143.682 170.698C147.549 171.626 150.546 173.037 152.672 174.932C154.799 176.827 155.862 179.591 155.862 183.226C155.862 186.861 154.49 189.819 151.744 192.1C149.038 194.343 145.461 195.464 141.014 195.464C134.596 195.464 128.815 193.086 123.672 188.33L129.066 181.718C133.436 185.546 137.476 187.46 141.188 187.46C142.851 187.46 144.146 187.112 145.074 186.416C146.041 185.681 146.524 184.715 146.524 183.516C146.524 182.279 146.022 181.312 145.016 180.616C144.011 179.881 142.02 179.147 139.042 178.412C134.325 177.291 130.864 175.841 128.66 174.062C126.495 172.245 125.412 169.422 125.412 165.594C125.412 161.727 126.785 158.75 129.53 156.662C132.314 154.574 135.775 153.53 139.912 153.53C142.619 153.53 145.326 153.994 148.032 154.922C150.739 155.85 153.098 157.165 155.108 158.866L150.526 165.478C147.008 162.81 143.373 161.476 139.622 161.476ZM180.587 162.288V195H171.539V162.288H160.055V154.458H192.071V162.288H180.587ZM225.129 184.56C226.637 186.416 228.667 187.344 231.219 187.344C233.771 187.344 235.782 186.416 237.251 184.56C238.759 182.665 239.513 180.094 239.513 176.846V154.458H248.561V177.136C248.561 183.013 246.937 187.537 243.689 190.708C240.441 193.84 236.284 195.406 231.219 195.406C226.154 195.406 221.978 193.821 218.691 190.65C215.443 187.479 213.819 182.975 213.819 177.136V154.458H222.867V176.846C222.867 180.094 223.621 182.665 225.129 184.56ZM271.206 161.476C269.698 161.476 268.499 161.843 267.61 162.578C266.759 163.274 266.334 164.221 266.334 165.42C266.334 166.58 266.856 167.508 267.9 168.204C268.982 168.9 271.438 169.731 275.266 170.698C279.132 171.626 282.129 173.037 284.256 174.932C286.382 176.827 287.446 179.591 287.446 183.226C287.446 186.861 286.073 189.819 283.328 192.1C280.621 194.343 277.044 195.464 272.598 195.464C266.179 195.464 260.398 193.086 255.256 188.33L260.65 181.718C265.019 185.546 269.06 187.46 272.772 187.46C274.434 187.46 275.73 187.112 276.658 186.416C277.624 185.681 278.108 184.715 278.108 183.516C278.108 182.279 277.605 181.312 276.6 180.616C275.594 179.881 273.603 179.147 270.626 178.412C265.908 177.291 262.448 175.841 260.244 174.062C258.078 172.245 256.996 169.422 256.996 165.594C256.996 161.727 258.368 158.75 261.114 156.662C263.898 154.574 267.358 153.53 271.496 153.53C274.202 153.53 276.909 153.994 279.616 154.922C282.322 155.85 284.681 157.165 286.692 158.866L282.11 165.478C278.591 162.81 274.956 161.476 271.206 161.476Z" fill="white"/>
<path d="M11.76 252.02V254.24H4.3V257.94H11V260.04H4.3V263.78H12V266H1.94V252.02H11.76ZM17.7259 266L13.4459 255.36H15.7659L19.0059 263.4L22.2459 255.36H24.5659L20.2859 266H17.7259ZM36.4513 261.66H28.1112C28.1646 262.433 28.5179 263.06 29.1712 263.54C29.8246 264.007 30.5712 264.24 31.4112 264.24C32.7446 264.24 33.7579 263.82 34.4512 262.98L35.7313 264.38C34.5846 265.567 33.0913 266.16 31.2512 266.16C29.7579 266.16 28.4846 265.667 27.4312 264.68C26.3912 263.68 25.8712 262.347 25.8712 260.68C25.8712 259 26.4046 257.667 27.4712 256.68C28.5379 255.693 29.7913 255.2 31.2313 255.2C32.6846 255.2 33.9179 255.64 34.9312 256.52C35.9446 257.387 36.4513 258.587 36.4513 260.12V261.66ZM28.1112 259.9H34.2112C34.2112 259.007 33.9312 258.32 33.3713 257.84C32.8113 257.36 32.1179 257.12 31.2912 257.12C30.4779 257.12 29.7446 257.373 29.0912 257.88C28.4379 258.373 28.1112 259.047 28.1112 259.9ZM44.6945 257.46C43.5879 257.46 42.7545 257.82 42.1945 258.54C41.6345 259.26 41.3545 260.227 41.3545 261.44V266H39.1145V255.36H41.3545V257.5C41.7145 256.833 42.2012 256.287 42.8145 255.86C43.4412 255.433 44.1012 255.213 44.7945 255.2L44.8145 257.46C44.7745 257.46 44.7345 257.46 44.6945 257.46ZM48.6037 270.24C47.6304 270.24 46.7504 269.887 45.9637 269.18L46.9837 267.36C47.4504 267.8 47.9304 268.02 48.4237 268.02C48.9304 268.02 49.3371 267.84 49.6437 267.48C49.9637 267.12 50.1237 266.727 50.1237 266.3C50.1237 266.113 48.6904 262.467 45.8237 255.36H48.2237L51.4037 263.2L54.5837 255.36H56.9837L51.8237 268C51.5171 268.693 51.0771 269.24 50.5037 269.64C49.9304 270.04 49.2971 270.24 48.6037 270.24ZM68.9764 266.16C67.6297 266.16 66.4564 265.653 65.4564 264.64C64.4564 263.627 63.9564 262.293 63.9564 260.64C63.9564 258.987 64.4697 257.667 65.4964 256.68C66.5231 255.693 67.7431 255.2 69.1564 255.2C70.5831 255.2 71.7297 255.8 72.5964 257V251.16H74.8364V266H72.5964V264.4C71.7697 265.573 70.5631 266.16 68.9764 266.16ZM66.1964 260.74C66.1964 261.753 66.5231 262.58 67.1764 263.22C67.8297 263.86 68.5964 264.18 69.4764 264.18C70.3564 264.18 71.1031 263.86 71.7164 263.22C72.3297 262.567 72.6364 261.733 72.6364 260.72C72.6364 259.707 72.3297 258.86 71.7164 258.18C71.1031 257.5 70.3497 257.16 69.4564 257.16C68.5631 257.16 67.7964 257.5 67.1564 258.18C66.5164 258.86 66.1964 259.713 66.1964 260.74ZM86.8939 266H84.8539V264.58C83.9739 265.633 82.7939 266.16 81.3139 266.16C80.2072 266.16 79.2872 265.847 78.5539 265.22C77.8339 264.593 77.4739 263.76 77.4739 262.72C77.4739 261.667 77.8606 260.88 78.6339 260.36C79.4072 259.84 80.4539 259.58 81.7739 259.58H84.6739V259.18C84.6739 257.767 83.8872 257.06 82.3139 257.06C81.3272 257.06 80.3006 257.42 79.2339 258.14L78.2339 256.74C79.5272 255.713 80.9939 255.2 82.6339 255.2C83.8872 255.2 84.9072 255.52 85.6939 256.16C86.4939 256.787 86.8939 257.78 86.8939 259.14V266ZM84.6539 262.04V261.14H82.1339C80.5206 261.14 79.7139 261.647 79.7139 262.66C79.7139 263.18 79.9139 263.58 80.3139 263.86C80.7139 264.127 81.2672 264.26 81.9739 264.26C82.6939 264.26 83.3206 264.06 83.8539 263.66C84.3872 263.26 84.6539 262.72 84.6539 262.04ZM91.435 270.24C90.4617 270.24 89.5817 269.887 88.795 269.18L89.815 267.36C90.2817 267.8 90.7617 268.02 91.255 268.02C91.7617 268.02 92.1683 267.84 92.475 267.48C92.795 267.12 92.955 266.727 92.955 266.3C92.955 266.113 91.5217 262.467 88.655 255.36H91.055L94.235 263.2L97.415 255.36H99.815L94.655 268C94.3483 268.693 93.9083 269.24 93.335 269.64C92.7617 270.04 92.1283 270.24 91.435 270.24ZM113.168 255.2C114.594 255.2 115.814 255.693 116.828 256.68C117.841 257.667 118.348 258.98 118.348 260.62C118.348 262.26 117.841 263.593 116.828 264.62C115.828 265.647 114.654 266.16 113.308 266.16C111.974 266.16 110.774 265.573 109.708 264.4V266H107.468V251.16H109.708V257.22C110.588 255.873 111.741 255.2 113.168 255.2ZM109.668 260.7C109.668 261.713 109.974 262.547 110.588 263.2C111.201 263.84 111.948 264.16 112.828 264.16C113.708 264.16 114.474 263.84 115.128 263.2C115.781 262.56 116.108 261.733 116.108 260.72C116.108 259.693 115.788 258.847 115.148 258.18C114.508 257.5 113.741 257.16 112.848 257.16C111.954 257.16 111.201 257.5 110.588 258.18C109.974 258.847 109.668 259.687 109.668 260.7ZM126.685 257.46C125.578 257.46 124.745 257.82 124.185 258.54C123.625 259.26 123.345 260.227 123.345 261.44V266H121.105V255.36H123.345V257.5C123.705 256.833 124.192 256.287 124.805 255.86C125.432 255.433 126.092 255.213 126.785 255.2L126.805 257.46C126.765 257.46 126.725 257.46 126.685 257.46ZM131.494 266H129.254V255.36H131.494V266ZM129.394 253.24C129.114 252.96 128.974 252.627 128.974 252.24C128.974 251.853 129.114 251.52 129.394 251.24C129.674 250.96 130.008 250.82 130.394 250.82C130.781 250.82 131.114 250.96 131.394 251.24C131.674 251.52 131.814 251.853 131.814 252.24C131.814 252.627 131.674 252.96 131.394 253.24C131.114 253.52 130.781 253.66 130.394 253.66C130.008 253.66 129.674 253.52 129.394 253.24ZM137.183 260.24V266H134.943V255.36H137.183V257.3C137.543 256.647 138.036 256.133 138.663 255.76C139.303 255.387 139.989 255.2 140.723 255.2C141.923 255.2 142.889 255.567 143.623 256.3C144.369 257.033 144.743 258.093 144.743 259.48V266H142.503V260.16C142.503 258.2 141.689 257.22 140.063 257.22C139.289 257.22 138.616 257.48 138.043 258C137.469 258.507 137.183 259.253 137.183 260.24ZM157.912 255.36V264.64C157.912 266.52 157.399 267.927 156.372 268.86C155.359 269.807 154.052 270.28 152.452 270.28C150.852 270.28 149.406 269.78 148.112 268.78L149.172 267.08C150.212 267.867 151.259 268.26 152.312 268.26C153.379 268.26 154.219 267.987 154.832 267.44C155.459 266.893 155.772 266.02 155.772 264.82V263.46C155.439 264.087 154.959 264.587 154.332 264.96C153.719 265.333 153.026 265.52 152.252 265.52C150.839 265.52 149.679 265.027 148.772 264.04C147.866 263.053 147.412 261.827 147.412 260.36C147.412 258.893 147.866 257.667 148.772 256.68C149.679 255.693 150.832 255.2 152.232 255.2C153.646 255.2 154.792 255.78 155.672 256.94V255.36H157.912ZM149.612 260.28C149.612 261.147 149.879 261.9 150.412 262.54C150.959 263.167 151.686 263.48 152.592 263.48C153.512 263.48 154.252 263.173 154.812 262.56C155.386 261.947 155.672 261.187 155.672 260.28C155.672 259.36 155.386 258.587 154.812 257.96C154.239 257.32 153.499 257 152.592 257C151.686 257 150.959 257.327 150.412 257.98C149.879 258.633 149.612 259.4 149.612 260.28ZM168.938 262.82C168.938 263.833 168.572 264.647 167.838 265.26C167.105 265.86 166.165 266.16 165.018 266.16C164.245 266.16 163.438 266.02 162.598 265.74C161.772 265.46 161.038 265.067 160.398 264.56L161.478 262.82C162.718 263.753 163.918 264.22 165.078 264.22C165.585 264.22 165.985 264.107 166.278 263.88C166.572 263.64 166.718 263.34 166.718 262.98C166.718 262.447 166.012 261.967 164.598 261.54C164.492 261.5 164.412 261.473 164.358 261.46C162.145 260.86 161.038 259.86 161.038 258.46C161.038 257.473 161.418 256.687 162.178 256.1C162.952 255.5 163.952 255.2 165.178 255.2C166.405 255.2 167.565 255.56 168.658 256.28L167.818 257.94C166.952 257.367 166.012 257.08 164.998 257.08C164.465 257.08 164.032 257.18 163.698 257.38C163.365 257.567 163.198 257.853 163.198 258.24C163.198 258.587 163.372 258.84 163.718 259C163.958 259.12 164.292 259.233 164.718 259.34C165.158 259.447 165.545 259.553 165.878 259.66C166.212 259.767 166.532 259.887 166.838 260.02C167.158 260.153 167.498 260.34 167.858 260.58C168.578 261.06 168.938 261.807 168.938 262.82ZM182.344 266H179.784L176.104 255.36H178.424L181.064 263.4L183.704 255.36H186.024L188.664 263.4L191.304 255.36H193.624L189.944 266H187.384L184.864 258.72L182.344 266ZM198.046 266H195.806V255.36H198.046V266ZM195.946 253.24C195.666 252.96 195.526 252.627 195.526 252.24C195.526 251.853 195.666 251.52 195.946 251.24C196.226 250.96 196.559 250.82 196.946 250.82C197.333 250.82 197.666 250.96 197.946 251.24C198.226 251.52 198.366 251.853 198.366 252.24C198.366 252.627 198.226 252.96 197.946 253.24C197.666 253.52 197.333 253.66 196.946 253.66C196.559 253.66 196.226 253.52 195.946 253.24ZM204.254 257.16V262.56C204.254 263.067 204.388 263.473 204.654 263.78C204.921 264.073 205.294 264.22 205.774 264.22C206.254 264.22 206.714 263.987 207.154 263.52L208.074 265.1C207.288 265.807 206.414 266.16 205.454 266.16C204.508 266.16 203.694 265.833 203.014 265.18C202.348 264.513 202.014 263.62 202.014 262.5V257.16H200.674V255.36H202.014V252.02H204.254V255.36H207.054V257.16H204.254ZM212.294 260.24V266H210.054V251.18H212.294V257.3C212.614 256.647 213.094 256.133 213.734 255.76C214.387 255.387 215.087 255.2 215.834 255.2C217.034 255.2 218 255.567 218.734 256.3C219.48 257.033 219.854 258.093 219.854 259.48V266H217.614V260.16C217.614 258.2 216.8 257.22 215.174 257.22C214.4 257.22 213.727 257.48 213.154 258C212.58 258.507 212.294 259.253 212.294 260.24ZM231.112 266H228.872V255.36H231.112V266ZM229.012 253.24C228.732 252.96 228.592 252.627 228.592 252.24C228.592 251.853 228.732 251.52 229.012 251.24C229.292 250.96 229.625 250.82 230.012 250.82C230.398 250.82 230.732 250.96 231.012 251.24C231.292 251.52 231.432 251.853 231.432 252.24C231.432 252.627 231.292 252.96 231.012 253.24C230.732 253.52 230.398 253.66 230.012 253.66C229.625 253.66 229.292 253.52 229.012 253.24ZM237.32 257.16V262.56C237.32 263.067 237.453 263.473 237.72 263.78C237.987 264.073 238.36 264.22 238.84 264.22C239.32 264.22 239.78 263.987 240.22 263.52L241.14 265.1C240.353 265.807 239.48 266.16 238.52 266.16C237.573 266.16 236.76 265.833 236.08 265.18C235.413 264.513 235.08 263.62 235.08 262.5V257.16H233.74V255.36H235.08V252.02H237.32V255.36H240.12V257.16H237.32ZM257.428 266H255.388V264.58C254.508 265.633 253.328 266.16 251.848 266.16C250.741 266.16 249.821 265.847 249.088 265.22C248.368 264.593 248.008 263.76 248.008 262.72C248.008 261.667 248.394 260.88 249.168 260.36C249.941 259.84 250.988 259.58 252.308 259.58H255.208V259.18C255.208 257.767 254.421 257.06 252.848 257.06C251.861 257.06 250.834 257.42 249.768 258.14L248.768 256.74C250.061 255.713 251.528 255.2 253.168 255.2C254.421 255.2 255.441 255.52 256.228 256.16C257.028 256.787 257.428 257.78 257.428 259.14V266ZM255.188 262.04V261.14H252.668C251.054 261.14 250.248 261.647 250.248 262.66C250.248 263.18 250.448 263.58 250.848 263.86C251.248 264.127 251.801 264.26 252.508 264.26C253.228 264.26 253.854 264.06 254.388 263.66C254.921 263.26 255.188 262.72 255.188 262.04ZM269.194 254.48V255.36H271.994V257.16H269.194V266H266.954V257.16H265.614V255.36H266.954V254.54C266.954 253.42 267.287 252.533 267.954 251.88C268.634 251.213 269.447 250.88 270.394 250.88C271.354 250.88 272.227 251.233 273.014 251.94L272.094 253.52C271.654 253.053 271.194 252.82 270.714 252.82C270.234 252.82 269.861 252.973 269.594 253.28C269.327 253.573 269.194 253.973 269.194 254.48ZM279.929 257.46C278.822 257.46 277.989 257.82 277.429 258.54C276.869 259.26 276.589 260.227 276.589 261.44V266H274.349V255.36H276.589V257.5C276.949 256.833 277.436 256.287 278.049 255.86C278.676 255.433 279.336 255.213 280.029 255.2L280.049 257.46C280.009 257.46 279.969 257.46 279.929 257.46ZM292.398 261.66H284.058C284.111 262.433 284.465 263.06 285.118 263.54C285.771 264.007 286.518 264.24 287.358 264.24C288.691 264.24 289.705 263.82 290.398 262.98L291.678 264.38C290.531 265.567 289.038 266.16 287.198 266.16C285.705 266.16 284.431 265.667 283.378 264.68C282.338 263.68 281.818 262.347 281.818 260.68C281.818 259 282.351 257.667 283.418 256.68C284.485 255.693 285.738 255.2 287.178 255.2C288.631 255.2 289.865 255.64 290.878 256.52C291.891 257.387 292.398 258.587 292.398 260.12V261.66ZM284.058 259.9H290.158C290.158 259.007 289.878 258.32 289.318 257.84C288.758 257.36 288.065 257.12 287.238 257.12C286.425 257.12 285.691 257.373 285.038 257.88C284.385 258.373 284.058 259.047 284.058 259.9ZM302.641 262.82C302.641 263.833 302.275 264.647 301.541 265.26C300.808 265.86 299.868 266.16 298.721 266.16C297.948 266.16 297.141 266.02 296.301 265.74C295.475 265.46 294.741 265.067 294.101 264.56L295.181 262.82C296.421 263.753 297.621 264.22 298.781 264.22C299.288 264.22 299.688 264.107 299.981 263.88C300.275 263.64 300.421 263.34 300.421 262.98C300.421 262.447 299.715 261.967 298.301 261.54C298.195 261.5 298.115 261.473 298.061 261.46C295.848 260.86 294.741 259.86 294.741 258.46C294.741 257.473 295.121 256.687 295.881 256.1C296.655 255.5 297.655 255.2 298.881 255.2C300.108 255.2 301.268 255.56 302.361 256.28L301.521 257.94C300.655 257.367 299.715 257.08 298.701 257.08C298.168 257.08 297.735 257.18 297.401 257.38C297.068 257.567 296.901 257.853 296.901 258.24C296.901 258.587 297.075 258.84 297.421 259C297.661 259.12 297.995 259.233 298.421 259.34C298.861 259.447 299.248 259.553 299.581 259.66C299.915 259.767 300.235 259.887 300.541 260.02C300.861 260.153 301.201 260.34 301.561 260.58C302.281 261.06 302.641 261.807 302.641 262.82ZM307.619 260.24V266H305.379V251.18H307.619V257.3C307.939 256.647 308.419 256.133 309.059 255.76C309.712 255.387 310.412 255.2 311.159 255.2C312.359 255.2 313.325 255.567 314.059 256.3C314.805 257.033 315.179 258.093 315.179 259.48V266H312.939V260.16C312.939 258.2 312.125 257.22 310.499 257.22C309.725 257.22 309.052 257.48 308.479 258C307.905 258.507 307.619 259.253 307.619 260.24ZM331.777 262.82C331.777 263.833 331.41 264.647 330.677 265.26C329.943 265.86 329.003 266.16 327.857 266.16C327.083 266.16 326.277 266.02 325.437 265.74C324.61 265.46 323.877 265.067 323.237 264.56L324.317 262.82C325.557 263.753 326.757 264.22 327.917 264.22C328.423 264.22 328.823 264.107 329.117 263.88C329.41 263.64 329.557 263.34 329.557 262.98C329.557 262.447 328.85 261.967 327.437 261.54C327.33 261.5 327.25 261.473 327.197 261.46C324.983 260.86 323.877 259.86 323.877 258.46C323.877 257.473 324.257 256.687 325.017 256.1C325.79 255.5 326.79 255.2 328.017 255.2C329.243 255.2 330.403 255.56 331.497 256.28L330.657 257.94C329.79 257.367 328.85 257.08 327.837 257.08C327.303 257.08 326.87 257.18 326.537 257.38C326.203 257.567 326.037 257.853 326.037 258.24C326.037 258.587 326.21 258.84 326.557 259C326.797 259.12 327.13 259.233 327.557 259.34C327.997 259.447 328.383 259.553 328.717 259.66C329.05 259.767 329.37 259.887 329.677 260.02C329.997 260.153 330.337 260.34 330.697 260.58C331.417 261.06 331.777 261.807 331.777 262.82ZM344.414 261.66H336.074C336.127 262.433 336.48 263.06 337.134 263.54C337.787 264.007 338.534 264.24 339.374 264.24C340.707 264.24 341.72 263.82 342.414 262.98L343.694 264.38C342.547 265.567 341.054 266.16 339.214 266.16C337.72 266.16 336.447 265.667 335.394 264.68C334.354 263.68 333.834 262.347 333.834 260.68C333.834 259 334.367 257.667 335.434 256.68C336.5 255.693 337.754 255.2 339.194 255.2C340.647 255.2 341.88 255.64 342.894 256.52C343.907 257.387 344.414 258.587 344.414 260.12V261.66ZM336.074 259.9H342.174C342.174 259.007 341.894 258.32 341.334 257.84C340.774 257.36 340.08 257.12 339.254 257.12C338.44 257.12 337.707 257.373 337.054 257.88C336.4 258.373 336.074 259.047 336.074 259.9ZM349.759 257.16V262.56C349.759 263.067 349.892 263.473 350.159 263.78C350.426 264.073 350.799 264.22 351.279 264.22C351.759 264.22 352.219 263.987 352.659 263.52L353.579 265.1C352.792 265.807 351.919 266.16 350.959 266.16C350.012 266.16 349.199 265.833 348.519 265.18C347.852 264.513 347.519 263.62 347.519 262.5V257.16H346.179V255.36H347.519V252.02H349.759V255.36H352.559V257.16H349.759ZM363.727 263.2C364.367 263.84 365.173 264.16 366.147 264.16C367.12 264.16 367.92 263.84 368.547 263.2C369.187 262.547 369.507 261.707 369.507 260.68C369.507 259.653 369.187 258.82 368.547 258.18C367.92 257.527 367.12 257.2 366.147 257.2C365.173 257.2 364.367 257.527 363.727 258.18C363.1 258.82 362.787 259.653 362.787 260.68C362.787 261.707 363.1 262.547 363.727 263.2ZM370.147 264.58C369.08 265.633 367.747 266.16 366.147 266.16C364.547 266.16 363.213 265.633 362.147 264.58C361.08 263.513 360.547 262.213 360.547 260.68C360.547 259.147 361.08 257.853 362.147 256.8C363.213 255.733 364.547 255.2 366.147 255.2C367.747 255.2 369.08 255.733 370.147 256.8C371.213 257.853 371.747 259.147 371.747 260.68C371.747 262.213 371.213 263.513 370.147 264.58ZM377.097 254.48V255.36H379.897V257.16H377.097V266H374.857V257.16H373.517V255.36H374.857V254.54C374.857 253.42 375.191 252.533 375.857 251.88C376.537 251.213 377.351 250.88 378.297 250.88C379.257 250.88 380.131 251.233 380.917 251.94L379.997 253.52C379.557 253.053 379.097 252.82 378.617 252.82C378.137 252.82 377.764 252.973 377.497 253.28C377.231 253.573 377.097 253.973 377.097 254.48ZM3.86 296H1.62V281.16H3.86V296ZM17.2083 291.66H8.86828C8.92161 292.433 9.27495 293.06 9.92828 293.54C10.5816 294.007 11.3283 294.24 12.1683 294.24C13.5016 294.24 14.5149 293.82 15.2083 292.98L16.4883 294.38C15.3416 295.567 13.8483 296.16 12.0083 296.16C10.5149 296.16 9.24161 295.667 8.18828 294.68C7.14828 293.68 6.62828 292.347 6.62828 290.68C6.62828 289 7.16161 287.667 8.22828 286.68C9.29495 285.693 10.5483 285.2 11.9883 285.2C13.4416 285.2 14.6749 285.64 15.6883 286.52C16.7016 287.387 17.2083 288.587 17.2083 290.12V291.66ZM8.86828 289.9H14.9683C14.9683 289.007 14.6883 288.32 14.1283 287.84C13.5683 287.36 12.8749 287.12 12.0483 287.12C11.2349 287.12 10.5016 287.373 9.84828 287.88C9.19495 288.373 8.86828 289.047 8.86828 289.9ZM28.4916 296H26.4516V294.58C25.5716 295.633 24.3916 296.16 22.9116 296.16C21.8049 296.16 20.8849 295.847 20.1516 295.22C19.4316 294.593 19.0716 293.76 19.0716 292.72C19.0716 291.667 19.4582 290.88 20.2316 290.36C21.0049 289.84 22.0516 289.58 23.3716 289.58H26.2716V289.18C26.2716 287.767 25.4849 287.06 23.9116 287.06C22.9249 287.06 21.8982 287.42 20.8316 288.14L19.8316 286.74C21.1249 285.713 22.5916 285.2 24.2316 285.2C25.4849 285.2 26.5049 285.52 27.2916 286.16C28.0916 286.787 28.4916 287.78 28.4916 289.14V296ZM26.2516 292.04V291.14H23.7316C22.1182 291.14 21.3116 291.647 21.3116 292.66C21.3116 293.18 21.5116 293.58 21.9116 293.86C22.3116 294.127 22.8649 294.26 23.5716 294.26C24.2916 294.26 24.9182 294.06 25.4516 293.66C25.9849 293.26 26.2516 292.72 26.2516 292.04ZM37.3898 287.46C36.2832 287.46 35.4498 287.82 34.8898 288.54C34.3298 289.26 34.0498 290.227 34.0498 291.44V296H31.8098V285.36H34.0498V287.5C34.4098 286.833 34.8965 286.287 35.5098 285.86C36.1365 285.433 36.7965 285.213 37.4898 285.2L37.5098 287.46C37.4698 287.46 37.4298 287.46 37.3898 287.46ZM42.1991 290.24V296H39.9591V285.36H42.1991V287.3C42.5591 286.647 43.0524 286.133 43.6791 285.76C44.3191 285.387 45.0057 285.2 45.7391 285.2C46.9391 285.2 47.9057 285.567 48.6391 286.3C49.3857 287.033 49.7591 288.093 49.7591 289.48V296H47.5191V290.16C47.5191 288.2 46.7057 287.22 45.0791 287.22C44.3057 287.22 43.6324 287.48 43.0591 288C42.4857 288.507 42.1991 289.253 42.1991 290.24ZM55.3288 296H53.0888V285.36H55.3288V296ZM53.2288 283.24C52.9488 282.96 52.8088 282.627 52.8088 282.24C52.8088 281.853 52.9488 281.52 53.2288 281.24C53.5088 280.96 53.8421 280.82 54.2288 280.82C54.6154 280.82 54.9488 280.96 55.2288 281.24C55.5088 281.52 55.6488 281.853 55.6488 282.24C55.6488 282.627 55.5088 282.96 55.2288 283.24C54.9488 283.52 54.6154 283.66 54.2288 283.66C53.8421 283.66 53.5088 283.52 53.2288 283.24ZM61.017 290.24V296H58.777V285.36H61.017V287.3C61.377 286.647 61.8704 286.133 62.497 285.76C63.137 285.387 63.8237 285.2 64.557 285.2C65.757 285.2 66.7237 285.567 67.457 286.3C68.2037 287.033 68.577 288.093 68.577 289.48V296H66.337V290.16C66.337 288.2 65.5237 287.22 63.897 287.22C63.1237 287.22 62.4504 287.48 61.877 288C61.3037 288.507 61.017 289.253 61.017 290.24ZM81.7467 285.36V294.64C81.7467 296.52 81.2334 297.927 80.2067 298.86C79.1934 299.807 77.8867 300.28 76.2867 300.28C74.6867 300.28 73.2401 299.78 71.9467 298.78L73.0067 297.08C74.0467 297.867 75.0934 298.26 76.1467 298.26C77.2134 298.26 78.0534 297.987 78.6667 297.44C79.2934 296.893 79.6067 296.02 79.6067 294.82V293.46C79.2734 294.087 78.7934 294.587 78.1667 294.96C77.5534 295.333 76.8601 295.52 76.0867 295.52C74.6734 295.52 73.5134 295.027 72.6067 294.04C71.7001 293.053 71.2467 291.827 71.2467 290.36C71.2467 288.893 71.7001 287.667 72.6067 286.68C73.5134 285.693 74.6667 285.2 76.0667 285.2C77.4801 285.2 78.6267 285.78 79.5067 286.94V285.36H81.7467ZM73.4467 290.28C73.4467 291.147 73.7134 291.9 74.2467 292.54C74.7934 293.167 75.5201 293.48 76.4267 293.48C77.3467 293.48 78.0867 293.173 78.6467 292.56C79.2201 291.947 79.5067 291.187 79.5067 290.28C79.5067 289.36 79.2201 288.587 78.6467 287.96C78.0734 287.32 77.3334 287 76.4267 287C75.5201 287 74.7934 287.327 74.2467 287.98C73.7134 288.633 73.4467 289.4 73.4467 290.28ZM96.5809 285.2C98.0076 285.2 99.2276 285.693 100.241 286.68C101.254 287.667 101.761 288.98 101.761 290.62C101.761 292.26 101.254 293.593 100.241 294.62C99.2409 295.647 98.0676 296.16 96.7209 296.16C95.3876 296.16 94.1876 295.573 93.1209 294.4V299.88H90.8809V285.36H93.1209V287.22C94.0009 285.873 95.1543 285.2 96.5809 285.2ZM93.0809 290.7C93.0809 291.713 93.3876 292.547 94.0009 293.2C94.6143 293.84 95.3609 294.16 96.2409 294.16C97.1209 294.16 97.8876 293.84 98.5409 293.2C99.1943 292.56 99.5209 291.733 99.5209 290.72C99.5209 289.693 99.2009 288.847 98.5609 288.18C97.9209 287.5 97.1543 287.16 96.2609 287.16C95.3676 287.16 94.6143 287.5 94.0009 288.18C93.3876 288.847 93.0809 289.687 93.0809 290.7ZM106.998 293.2C107.638 293.84 108.445 294.16 109.418 294.16C110.392 294.16 111.192 293.84 111.818 293.2C112.458 292.547 112.778 291.707 112.778 290.68C112.778 289.653 112.458 288.82 111.818 288.18C111.192 287.527 110.392 287.2 109.418 287.2C108.445 287.2 107.638 287.527 106.998 288.18C106.372 288.82 106.058 289.653 106.058 290.68C106.058 291.707 106.372 292.547 106.998 293.2ZM113.418 294.58C112.352 295.633 111.018 296.16 109.418 296.16C107.818 296.16 106.485 295.633 105.418 294.58C104.352 293.513 103.818 292.213 103.818 290.68C103.818 289.147 104.352 287.853 105.418 286.8C106.485 285.733 107.818 285.2 109.418 285.2C111.018 285.2 112.352 285.733 113.418 286.8C114.485 287.853 115.018 289.147 115.018 290.68C115.018 292.213 114.485 293.513 113.418 294.58ZM125.345 292.82C125.345 293.833 124.979 294.647 124.245 295.26C123.512 295.86 122.572 296.16 121.425 296.16C120.652 296.16 119.845 296.02 119.005 295.74C118.179 295.46 117.445 295.067 116.805 294.56L117.885 292.82C119.125 293.753 120.325 294.22 121.485 294.22C121.992 294.22 122.392 294.107 122.685 293.88C122.979 293.64 123.125 293.34 123.125 292.98C123.125 292.447 122.419 291.967 121.005 291.54C120.899 291.5 120.819 291.473 120.765 291.46C118.552 290.86 117.445 289.86 117.445 288.46C117.445 287.473 117.825 286.687 118.585 286.1C119.359 285.5 120.359 285.2 121.585 285.2C122.812 285.2 123.972 285.56 125.065 286.28L124.225 287.94C123.359 287.367 122.419 287.08 121.405 287.08C120.872 287.08 120.439 287.18 120.105 287.38C119.772 287.567 119.605 287.853 119.605 288.24C119.605 288.587 119.779 288.84 120.125 289C120.365 289.12 120.699 289.233 121.125 289.34C121.565 289.447 121.952 289.553 122.285 289.66C122.619 289.767 122.939 289.887 123.245 290.02C123.565 290.153 123.905 290.34 124.265 290.58C124.985 291.06 125.345 291.807 125.345 292.82ZM135.663 292.82C135.663 293.833 135.296 294.647 134.563 295.26C133.829 295.86 132.889 296.16 131.743 296.16C130.969 296.16 130.163 296.02 129.323 295.74C128.496 295.46 127.763 295.067 127.123 294.56L128.203 292.82C129.443 293.753 130.643 294.22 131.803 294.22C132.309 294.22 132.709 294.107 133.003 293.88C133.296 293.64 133.443 293.34 133.443 292.98C133.443 292.447 132.736 291.967 131.323 291.54C131.216 291.5 131.136 291.473 131.083 291.46C128.869 290.86 127.763 289.86 127.763 288.46C127.763 287.473 128.143 286.687 128.903 286.1C129.676 285.5 130.676 285.2 131.903 285.2C133.129 285.2 134.289 285.56 135.383 286.28L134.543 287.94C133.676 287.367 132.736 287.08 131.723 287.08C131.189 287.08 130.756 287.18 130.423 287.38C130.089 287.567 129.923 287.853 129.923 288.24C129.923 288.587 130.096 288.84 130.443 289C130.683 289.12 131.016 289.233 131.443 289.34C131.883 289.447 132.269 289.553 132.603 289.66C132.936 289.767 133.256 289.887 133.563 290.02C133.883 290.153 134.223 290.34 134.583 290.58C135.303 291.06 135.663 291.807 135.663 292.82ZM140.64 296H138.4V285.36H140.64V296ZM138.54 283.24C138.26 282.96 138.12 282.627 138.12 282.24C138.12 281.853 138.26 281.52 138.54 281.24C138.82 280.96 139.153 280.82 139.54 280.82C139.926 280.82 140.26 280.96 140.54 281.24C140.82 281.52 140.96 281.853 140.96 282.24C140.96 282.627 140.82 282.96 140.54 283.24C140.26 283.52 139.926 283.66 139.54 283.66C139.153 283.66 138.82 283.52 138.54 283.24ZM149.788 285.2C151.215 285.2 152.435 285.693 153.448 286.68C154.461 287.667 154.968 288.98 154.968 290.62C154.968 292.26 154.461 293.593 153.448 294.62C152.448 295.647 151.275 296.16 149.928 296.16C148.595 296.16 147.395 295.573 146.328 294.4V296H144.088V281.16H146.328V287.22C147.208 285.873 148.361 285.2 149.788 285.2ZM146.288 290.7C146.288 291.713 146.595 292.547 147.208 293.2C147.821 293.84 148.568 294.16 149.448 294.16C150.328 294.16 151.095 293.84 151.748 293.2C152.401 292.56 152.728 291.733 152.728 290.72C152.728 289.693 152.408 288.847 151.768 288.18C151.128 287.5 150.361 287.16 149.468 287.16C148.575 287.16 147.821 287.5 147.208 288.18C146.595 288.847 146.288 289.687 146.288 290.7ZM159.965 296H157.725V285.36H159.965V296ZM157.865 283.24C157.585 282.96 157.445 282.627 157.445 282.24C157.445 281.853 157.585 281.52 157.865 281.24C158.145 280.96 158.479 280.82 158.865 280.82C159.252 280.82 159.585 280.96 159.865 281.24C160.145 281.52 160.285 281.853 160.285 282.24C160.285 282.627 160.145 282.96 159.865 283.24C159.585 283.52 159.252 283.66 158.865 283.66C158.479 283.66 158.145 283.52 157.865 283.24ZM165.654 296H163.414V281.16H165.654V296ZM171.342 296H169.102V285.36H171.342V296ZM169.242 283.24C168.962 282.96 168.822 282.627 168.822 282.24C168.822 281.853 168.962 281.52 169.242 281.24C169.522 280.96 169.855 280.82 170.242 280.82C170.629 280.82 170.962 280.96 171.242 281.24C171.522 281.52 171.662 281.853 171.662 282.24C171.662 282.627 171.522 282.96 171.242 283.24C170.962 283.52 170.629 283.66 170.242 283.66C169.855 283.66 169.522 283.52 169.242 283.24ZM177.55 287.16V292.56C177.55 293.067 177.684 293.473 177.95 293.78C178.217 294.073 178.59 294.22 179.07 294.22C179.55 294.22 180.01 293.987 180.45 293.52L181.37 295.1C180.584 295.807 179.71 296.16 178.75 296.16C177.804 296.16 176.99 295.833 176.31 295.18C175.644 294.513 175.31 293.62 175.31 292.5V287.16H173.97V285.36H175.31V282.02H177.55V285.36H180.35V287.16H177.55ZM185.59 296H183.35V285.36H185.59V296ZM183.49 283.24C183.21 282.96 183.07 282.627 183.07 282.24C183.07 281.853 183.21 281.52 183.49 281.24C183.77 280.96 184.103 280.82 184.49 280.82C184.876 280.82 185.21 280.96 185.49 281.24C185.77 281.52 185.91 281.853 185.91 282.24C185.91 282.627 185.77 282.96 185.49 283.24C185.21 283.52 184.876 283.66 184.49 283.66C184.103 283.66 183.77 283.52 183.49 283.24ZM198.938 291.66H190.598C190.651 292.433 191.005 293.06 191.658 293.54C192.311 294.007 193.058 294.24 193.898 294.24C195.231 294.24 196.245 293.82 196.938 292.98L198.218 294.38C197.071 295.567 195.578 296.16 193.738 296.16C192.245 296.16 190.971 295.667 189.918 294.68C188.878 293.68 188.358 292.347 188.358 290.68C188.358 289 188.891 287.667 189.958 286.68C191.025 285.693 192.278 285.2 193.718 285.2C195.171 285.2 196.405 285.64 197.418 286.52C198.431 287.387 198.938 288.587 198.938 290.12V291.66ZM190.598 289.9H196.698C196.698 289.007 196.418 288.32 195.858 287.84C195.298 287.36 194.605 287.12 193.778 287.12C192.965 287.12 192.231 287.373 191.578 287.88C190.925 288.373 190.598 289.047 190.598 289.9ZM209.181 292.82C209.181 293.833 208.815 294.647 208.081 295.26C207.348 295.86 206.408 296.16 205.261 296.16C204.488 296.16 203.681 296.02 202.841 295.74C202.015 295.46 201.281 295.067 200.641 294.56L201.721 292.82C202.961 293.753 204.161 294.22 205.321 294.22C205.828 294.22 206.228 294.107 206.521 293.88C206.815 293.64 206.961 293.34 206.961 292.98C206.961 292.447 206.255 291.967 204.841 291.54C204.735 291.5 204.655 291.473 204.601 291.46C202.388 290.86 201.281 289.86 201.281 288.46C201.281 287.473 201.661 286.687 202.421 286.1C203.195 285.5 204.195 285.2 205.421 285.2C206.648 285.2 207.808 285.56 208.901 286.28L208.061 287.94C207.195 287.367 206.255 287.08 205.241 287.08C204.708 287.08 204.275 287.18 203.941 287.38C203.608 287.567 203.441 287.853 203.441 288.24C203.441 288.587 203.615 288.84 203.961 289C204.201 289.12 204.535 289.233 204.961 289.34C205.401 289.447 205.788 289.553 206.121 289.66C206.455 289.767 206.775 289.887 207.081 290.02C207.401 290.153 207.741 290.34 208.101 290.58C208.821 291.06 209.181 291.807 209.181 292.82ZM212.038 295.72C211.758 295.427 211.618 295.073 211.618 294.66C211.618 294.247 211.758 293.9 212.038 293.62C212.332 293.327 212.685 293.18 213.098 293.18C213.512 293.18 213.865 293.327 214.158 293.62C214.452 293.9 214.598 294.247 214.598 294.66C214.598 295.073 214.452 295.427 214.158 295.72C213.865 296.013 213.512 296.16 213.098 296.16C212.685 296.16 212.332 296.013 212.038 295.72Z" fill="white"/>
<path d="M0 339C0 336.239 2.23858 334 5 334H128C130.761 334 133 336.239 133 339V381C133 383.761 130.761 386 128 386H5C2.23857 386 0 383.761 0 381V339Z" fill="#8D5CF6"/>
<path d="M42.0204 356.698V355.214H46.7804V361.668C46.7804 362.807 46.4911 363.661 45.9124 364.23C45.3338 364.799 44.5918 365.084 43.6864 365.084C42.5478 365.084 41.5771 364.683 40.7744 363.88L41.7124 362.578C42.3471 363.185 42.9678 363.488 43.5744 363.488C44.0038 363.488 44.3678 363.343 44.6664 363.054C44.9744 362.765 45.1284 362.331 45.1284 361.752V356.698H42.0204ZM51.012 363.04C51.46 363.488 52.0247 363.712 52.706 363.712C53.3873 363.712 53.9473 363.488 54.386 363.04C54.834 362.583 55.058 361.995 55.058 361.276C55.058 360.557 54.834 359.974 54.386 359.526C53.9473 359.069 53.3873 358.84 52.706 358.84C52.0247 358.84 51.46 359.069 51.012 359.526C50.5733 359.974 50.354 360.557 50.354 361.276C50.354 361.995 50.5733 362.583 51.012 363.04ZM55.506 364.006C54.7593 364.743 53.826 365.112 52.706 365.112C51.586 365.112 50.6527 364.743 49.906 364.006C49.1593 363.259 48.786 362.349 48.786 361.276C48.786 360.203 49.1593 359.297 49.906 358.56C50.6527 357.813 51.586 357.44 52.706 357.44C53.826 357.44 54.7593 357.813 55.506 358.56C56.2527 359.297 56.626 360.203 56.626 361.276C56.626 362.349 56.2527 363.259 55.506 364.006ZM60.1768 365H58.6088V357.552H60.1768V365ZM58.7068 356.068C58.5108 355.872 58.4128 355.639 58.4128 355.368C58.4128 355.097 58.5108 354.864 58.7068 354.668C58.9028 354.472 59.1361 354.374 59.4068 354.374C59.6775 354.374 59.9108 354.472 60.1068 354.668C60.3028 354.864 60.4008 355.097 60.4008 355.368C60.4008 355.639 60.3028 355.872 60.1068 356.068C59.9108 356.264 59.6775 356.362 59.4068 356.362C59.1361 356.362 58.9028 356.264 58.7068 356.068ZM64.2186 360.968V365H62.6506V357.552H64.2186V358.91C64.4706 358.453 64.8159 358.093 65.2546 357.832C65.7026 357.571 66.1833 357.44 66.6966 357.44C67.5366 357.44 68.2133 357.697 68.7266 358.21C69.2493 358.723 69.5106 359.465 69.5106 360.436V365H67.9426V360.912C67.9426 359.54 67.3733 358.854 66.2346 358.854C65.6933 358.854 65.2219 359.036 64.8206 359.4C64.4193 359.755 64.2186 360.277 64.2186 360.968ZM78.3652 362.76C78.8132 363.283 79.4198 363.544 80.1852 363.544C80.9505 363.544 81.5572 363.283 82.0052 362.76C82.4532 362.237 82.6772 361.528 82.6772 360.632V355.214H84.3292V360.702C84.3292 362.111 83.9418 363.199 83.1672 363.964C82.3925 364.72 81.3985 365.098 80.1852 365.098C78.9718 365.098 77.9778 364.72 77.2032 363.964C76.4285 363.199 76.0412 362.111 76.0412 360.702V355.214H77.6932V360.632C77.6932 361.528 77.9172 362.237 78.3652 362.76ZM92.0175 362.774C92.0175 363.483 91.7609 364.053 91.2475 364.482C90.7342 364.902 90.0762 365.112 89.2735 365.112C88.7322 365.112 88.1675 365.014 87.5795 364.818C87.0009 364.622 86.4875 364.347 86.0395 363.992L86.7955 362.774C87.6635 363.427 88.5035 363.754 89.3155 363.754C89.6702 363.754 89.9502 363.675 90.1555 363.516C90.3609 363.348 90.4635 363.138 90.4635 362.886C90.4635 362.513 89.9689 362.177 88.9795 361.878C88.9049 361.85 88.8489 361.831 88.8115 361.822C87.2622 361.402 86.4875 360.702 86.4875 359.722C86.4875 359.031 86.7535 358.481 87.2855 358.07C87.8269 357.65 88.5269 357.44 89.3855 357.44C90.2442 357.44 91.0562 357.692 91.8215 358.196L91.2335 359.358C90.6269 358.957 89.9689 358.756 89.2595 358.756C88.8862 358.756 88.5829 358.826 88.3495 358.966C88.1162 359.097 87.9995 359.297 87.9995 359.568C87.9995 359.811 88.1209 359.988 88.3635 360.1C88.5315 360.184 88.7649 360.263 89.0635 360.338C89.3715 360.413 89.6422 360.487 89.8755 360.562C90.1089 360.637 90.3329 360.721 90.5475 360.814C90.7715 360.907 91.0095 361.038 91.2615 361.206C91.7655 361.542 92.0175 362.065 92.0175 362.774Z" fill="white"/>
<path d="M184.218 365V355.214H186.402V363.054H190.574V365H184.218ZM198.689 363.908C197.84 364.711 196.841 365.112 195.693 365.112C194.554 365.112 193.612 364.762 192.865 364.062C192.118 363.353 191.745 362.405 191.745 361.22C191.745 360.035 192.123 359.092 192.879 358.392C193.644 357.692 194.545 357.342 195.581 357.342C196.617 357.342 197.494 357.655 198.213 358.28C198.941 358.905 199.305 359.764 199.305 360.856V361.976H193.817C193.882 362.387 194.097 362.723 194.461 362.984C194.825 363.245 195.236 363.376 195.693 363.376C196.43 363.376 197.037 363.129 197.513 362.634L198.689 363.908ZM197.177 360.478C197.13 360.03 196.962 359.685 196.673 359.442C196.384 359.199 196.029 359.078 195.609 359.078C195.198 359.078 194.82 359.204 194.475 359.456C194.13 359.708 193.929 360.049 193.873 360.478H197.177ZM207.417 365H205.443V364.09C204.902 364.771 204.23 365.112 203.427 365.112C202.634 365.112 201.967 364.883 201.425 364.426C200.884 363.959 200.613 363.343 200.613 362.578C200.613 361.803 200.893 361.225 201.453 360.842C202.013 360.459 202.779 360.268 203.749 360.268H205.317V360.226C205.317 359.423 204.893 359.022 204.043 359.022C203.679 359.022 203.292 359.097 202.881 359.246C202.48 359.386 202.139 359.563 201.859 359.778L200.921 358.42C201.911 357.701 203.04 357.342 204.309 357.342C205.224 357.342 205.971 357.571 206.549 358.028C207.128 358.485 207.417 359.209 207.417 360.198V365ZM205.303 362.13V361.766H203.987C203.147 361.766 202.727 362.027 202.727 362.55C202.727 362.821 202.825 363.031 203.021 363.18C203.227 363.32 203.516 363.39 203.889 363.39C204.263 363.39 204.589 363.278 204.869 363.054C205.159 362.821 205.303 362.513 205.303 362.13ZM213.494 359.316C212.869 359.316 212.402 359.54 212.094 359.988C211.786 360.427 211.632 361.01 211.632 361.738V365H209.532V357.468H211.632V358.462C211.903 358.154 212.239 357.893 212.64 357.678C213.051 357.463 213.466 357.351 213.886 357.342L213.9 359.316H213.494ZM217.588 360.8V365H215.488V357.468H217.588V358.308C218.222 357.664 218.936 357.342 219.73 357.342C220.523 357.342 221.186 357.622 221.718 358.182C222.259 358.742 222.53 359.489 222.53 360.422V365H220.43V360.744C220.43 359.587 220.005 359.008 219.156 359.008C218.736 359.008 218.367 359.162 218.05 359.47C217.742 359.769 217.588 360.212 217.588 360.8ZM237.495 358.84L234.849 364.188H233.547L230.915 358.84V365H228.731V355.214H231.685L234.205 360.59L236.739 355.214H239.679V365H237.495V358.84ZM243.758 361.234C243.758 361.85 243.931 362.354 244.276 362.746C244.631 363.129 245.079 363.32 245.62 363.32C246.171 363.32 246.619 363.129 246.964 362.746C247.319 362.354 247.496 361.85 247.496 361.234C247.496 360.618 247.319 360.114 246.964 359.722C246.619 359.33 246.171 359.134 245.62 359.134C245.079 359.134 244.631 359.33 244.276 359.722C243.931 360.114 243.758 360.618 243.758 361.234ZM249.61 361.234C249.61 362.326 249.232 363.245 248.476 363.992C247.72 364.739 246.768 365.112 245.62 365.112C244.481 365.112 243.534 364.739 242.778 363.992C242.022 363.245 241.644 362.326 241.644 361.234C241.644 360.142 242.022 359.223 242.778 358.476C243.534 357.72 244.481 357.342 245.62 357.342C246.768 357.342 247.72 357.72 248.476 358.476C249.232 359.223 249.61 360.142 249.61 361.234ZM255.332 359.316C254.706 359.316 254.24 359.54 253.932 359.988C253.624 360.427 253.47 361.01 253.47 361.738V365H251.37V357.468H253.47V358.462C253.74 358.154 254.076 357.893 254.478 357.678C254.888 357.463 255.304 357.351 255.724 357.342L255.738 359.316H255.332ZM263.85 363.908C263 364.711 262.002 365.112 260.854 365.112C259.715 365.112 258.772 364.762 258.026 364.062C257.279 363.353 256.906 362.405 256.906 361.22C256.906 360.035 257.284 359.092 258.04 358.392C258.805 357.692 259.706 357.342 260.742 357.342C261.778 357.342 262.655 357.655 263.374 358.28C264.102 358.905 264.466 359.764 264.466 360.856V361.976H258.978C259.043 362.387 259.258 362.723 259.622 362.984C259.986 363.245 260.396 363.376 260.854 363.376C261.591 363.376 262.198 363.129 262.674 362.634L263.85 363.908ZM262.338 360.478C262.291 360.03 262.123 359.685 261.834 359.442C261.544 359.199 261.19 359.078 260.77 359.078C260.359 359.078 259.981 359.204 259.636 359.456C259.29 359.708 259.09 360.049 259.034 360.478H262.338Z" fill="white"/>
<path d="M143.5 339C143.5 336.515 145.515 334.5 148 334.5H300C302.485 334.5 304.5 336.515 304.5 339V381C304.5 383.485 302.485 385.5 300 385.5H148C145.515 385.5 143.5 383.485 143.5 381V339Z" stroke="#8D5CF6"/>
</svg>
